<?xml version="1.0" encoding="UTF-8" standalone="no"?>
<!DOCTYPE svg PUBLIC "-//W3C//DTD SVG 1.1//EN" "http://www.w3.org/Graphics/SVG/1.1/DTD/svg11.dtd">
<svg width="100%" height="100%" viewBox="0 0 3996 2294" version="1.1" xmlns="http://www.w3.org/2000/svg" xmlns:xlink="http://www.w3.org/1999/xlink" xml:space="preserve" xmlns:serif="http://www.serif.com/" style="fill-rule:evenodd;clip-rule:evenodd;stroke-linejoin:round;stroke-miterlimit:2;">
    <g transform="matrix(1.33333,0,0,1.33333,-5994.59,-2678.95)">
        <g transform="matrix(1,0,0,1,3452.28,1634.65)">
            <g transform="matrix(5.19258,0,0,6.10656,-9450.85,-22029.8)">
                <path d="M2317.5,3668.89C2472.44,3668.89 2598.22,3802.67 2598.22,3802.67C2598.22,3802.67 2472.44,3936.44 2317.5,3936.44C2162.57,3936.44 2036.79,3802.67 2036.79,3802.67C2036.79,3802.67 2162.57,3668.89 2317.5,3668.89Z" style="fill:white;"/>
            </g>
        </g>
        <g transform="matrix(1,0,0,1,3452.28,1634.65)">
            <g transform="matrix(5.28172,-0.225033,0.225033,5.28172,-7637.92,-11878.9)">
                <g transform="matrix(281.911,0,0,281.911,1533.58,2624.55)">
                    <path d="M0.301,-0C0.292,-0.016 0.284,-0.037 0.278,-0.063C0.272,-0.089 0.266,-0.116 0.262,-0.144C0.258,-0.172 0.255,-0.198 0.252,-0.223C0.249,-0.247 0.247,-0.267 0.244,-0.281L0.244,-0.449C0.244,-0.456 0.247,-0.463 0.253,-0.469C0.259,-0.475 0.265,-0.479 0.272,-0.479L0.281,-0.479C0.284,-0.461 0.286,-0.443 0.287,-0.424C0.288,-0.406 0.29,-0.387 0.291,-0.369C0.292,-0.351 0.294,-0.333 0.297,-0.314C0.299,-0.296 0.304,-0.279 0.31,-0.262C0.32,-0.259 0.331,-0.257 0.344,-0.256C0.355,-0.256 0.369,-0.255 0.385,-0.254C0.402,-0.254 0.42,-0.257 0.44,-0.262C0.46,-0.268 0.478,-0.276 0.495,-0.286C0.512,-0.297 0.526,-0.309 0.538,-0.325C0.549,-0.34 0.555,-0.357 0.555,-0.376C0.555,-0.397 0.548,-0.415 0.534,-0.431C0.521,-0.447 0.503,-0.461 0.481,-0.474C0.46,-0.486 0.436,-0.497 0.41,-0.506C0.384,-0.515 0.359,-0.522 0.333,-0.528C0.308,-0.533 0.285,-0.537 0.264,-0.54C0.242,-0.543 0.226,-0.544 0.214,-0.544C0.21,-0.544 0.203,-0.544 0.192,-0.545C0.182,-0.546 0.17,-0.546 0.158,-0.545C0.145,-0.545 0.133,-0.544 0.121,-0.543C0.109,-0.542 0.1,-0.539 0.094,-0.535C0.088,-0.532 0.083,-0.526 0.078,-0.518C0.073,-0.509 0.068,-0.5 0.063,-0.492C0.059,-0.483 0.054,-0.475 0.049,-0.469C0.044,-0.462 0.039,-0.459 0.033,-0.459L0.031,-0.459C0.031,-0.459 0.03,-0.459 0.028,-0.46C0.027,-0.461 0.026,-0.462 0.025,-0.463C0.025,-0.464 0.024,-0.467 0.023,-0.473C0.022,-0.478 0.021,-0.485 0.021,-0.495C0.02,-0.505 0.02,-0.518 0.02,-0.535C0.02,-0.542 0.023,-0.549 0.03,-0.555C0.037,-0.561 0.046,-0.567 0.057,-0.571C0.069,-0.576 0.081,-0.58 0.094,-0.583C0.107,-0.587 0.119,-0.59 0.131,-0.592C0.143,-0.595 0.154,-0.596 0.164,-0.598C0.173,-0.599 0.179,-0.6 0.183,-0.6C0.205,-0.6 0.231,-0.598 0.26,-0.596C0.29,-0.593 0.32,-0.588 0.352,-0.582C0.384,-0.575 0.415,-0.566 0.446,-0.554C0.477,-0.543 0.504,-0.529 0.528,-0.512C0.552,-0.496 0.572,-0.476 0.588,-0.452C0.603,-0.429 0.61,-0.402 0.61,-0.371C0.614,-0.349 0.61,-0.329 0.599,-0.31C0.588,-0.292 0.572,-0.275 0.553,-0.26C0.534,-0.246 0.512,-0.233 0.488,-0.222C0.464,-0.211 0.441,-0.203 0.418,-0.197C0.395,-0.191 0.375,-0.187 0.356,-0.185C0.338,-0.183 0.326,-0.184 0.318,-0.188L0.318,-0.179C0.318,-0.156 0.32,-0.133 0.324,-0.111C0.328,-0.089 0.33,-0.067 0.33,-0.044C0.33,-0.041 0.33,-0.037 0.329,-0.032C0.328,-0.026 0.327,-0.021 0.325,-0.016C0.322,-0.01 0.319,-0.006 0.316,-0.003C0.312,0 0.307,0.001 0.301,-0Z" style="fill-rule:nonzero;"/>
                </g>
                <g transform="matrix(281.911,0,0,281.911,1710.6,2624.55)">
                    <path d="M0.375,-0.142C0.36,-0.133 0.347,-0.123 0.336,-0.111C0.326,-0.099 0.315,-0.087 0.304,-0.077C0.293,-0.066 0.28,-0.057 0.267,-0.049C0.254,-0.041 0.237,-0.037 0.216,-0.037C0.192,-0.037 0.171,-0.042 0.152,-0.052C0.133,-0.062 0.117,-0.076 0.102,-0.093C0.087,-0.111 0.075,-0.13 0.064,-0.152C0.053,-0.174 0.044,-0.196 0.038,-0.219C0.031,-0.242 0.026,-0.265 0.022,-0.288C0.018,-0.31 0.017,-0.33 0.017,-0.349C0.011,-0.384 0.012,-0.411 0.02,-0.431C0.027,-0.451 0.035,-0.464 0.045,-0.469C0.056,-0.475 0.064,-0.473 0.071,-0.465C0.078,-0.457 0.079,-0.443 0.074,-0.423C0.073,-0.42 0.072,-0.416 0.071,-0.411C0.071,-0.405 0.068,-0.382 0.067,-0.377C0.067,-0.372 0.066,-0.368 0.066,-0.366C0.066,-0.353 0.068,-0.336 0.07,-0.318C0.073,-0.299 0.077,-0.28 0.083,-0.26C0.088,-0.24 0.095,-0.22 0.104,-0.2C0.112,-0.18 0.122,-0.162 0.134,-0.146C0.146,-0.131 0.159,-0.118 0.174,-0.108C0.19,-0.099 0.206,-0.094 0.225,-0.094C0.236,-0.094 0.25,-0.099 0.265,-0.111C0.28,-0.122 0.294,-0.136 0.307,-0.152C0.32,-0.168 0.332,-0.184 0.341,-0.201C0.351,-0.218 0.355,-0.232 0.355,-0.244C0.355,-0.251 0.356,-0.261 0.356,-0.276C0.356,-0.291 0.356,-0.307 0.356,-0.324C0.356,-0.341 0.356,-0.357 0.356,-0.372C0.356,-0.387 0.355,-0.397 0.355,-0.403C0.359,-0.41 0.364,-0.415 0.368,-0.418C0.373,-0.422 0.378,-0.424 0.385,-0.424C0.393,-0.424 0.399,-0.419 0.404,-0.408C0.41,-0.398 0.414,-0.384 0.417,-0.368C0.42,-0.352 0.423,-0.334 0.424,-0.315C0.425,-0.297 0.426,-0.278 0.427,-0.261C0.427,-0.243 0.428,-0.228 0.429,-0.214C0.429,-0.201 0.43,-0.192 0.432,-0.188C0.435,-0.174 0.44,-0.16 0.446,-0.144C0.452,-0.127 0.458,-0.111 0.464,-0.096C0.47,-0.081 0.475,-0.067 0.479,-0.054C0.484,-0.042 0.486,-0.032 0.486,-0.025C0.486,-0.016 0.484,-0.01 0.478,-0.008C0.472,-0.006 0.465,-0.005 0.457,-0.005C0.447,-0.005 0.439,-0.007 0.434,-0.013C0.429,-0.018 0.426,-0.025 0.423,-0.033C0.421,-0.041 0.419,-0.05 0.418,-0.06C0.417,-0.069 0.415,-0.079 0.412,-0.09C0.409,-0.1 0.404,-0.11 0.399,-0.119C0.393,-0.128 0.385,-0.136 0.375,-0.142Z" style="fill-rule:nonzero;"/>
                </g>
                <g transform="matrix(281.911,0,0,281.911,1852.1,2624.55)">
                    <path d="M0.019,-0.128C0.019,-0.169 0.026,-0.203 0.04,-0.231C0.054,-0.259 0.073,-0.282 0.097,-0.299C0.121,-0.316 0.149,-0.328 0.18,-0.336C0.212,-0.344 0.245,-0.348 0.279,-0.348C0.307,-0.348 0.334,-0.343 0.361,-0.334C0.387,-0.325 0.411,-0.312 0.432,-0.296C0.452,-0.28 0.469,-0.26 0.481,-0.236C0.494,-0.213 0.5,-0.186 0.5,-0.156C0.5,-0.13 0.495,-0.109 0.485,-0.092C0.476,-0.076 0.462,-0.063 0.445,-0.053C0.428,-0.044 0.41,-0.037 0.389,-0.033C0.369,-0.029 0.348,-0.027 0.326,-0.027C0.305,-0.027 0.284,-0.028 0.262,-0.03C0.24,-0.032 0.22,-0.037 0.202,-0.044C0.184,-0.051 0.169,-0.062 0.157,-0.076C0.146,-0.09 0.14,-0.111 0.14,-0.137C0.153,-0.137 0.167,-0.134 0.179,-0.128C0.192,-0.123 0.205,-0.117 0.218,-0.111C0.231,-0.105 0.244,-0.099 0.257,-0.094C0.269,-0.088 0.283,-0.085 0.297,-0.085C0.307,-0.085 0.321,-0.086 0.338,-0.088C0.356,-0.09 0.372,-0.094 0.387,-0.099C0.403,-0.105 0.416,-0.112 0.427,-0.122C0.438,-0.132 0.443,-0.144 0.443,-0.159C0.443,-0.181 0.438,-0.201 0.429,-0.217C0.419,-0.233 0.406,-0.247 0.391,-0.257C0.375,-0.268 0.357,-0.276 0.338,-0.282C0.318,-0.288 0.299,-0.291 0.279,-0.291C0.277,-0.291 0.27,-0.29 0.26,-0.289C0.25,-0.288 0.239,-0.286 0.226,-0.283C0.213,-0.28 0.199,-0.276 0.185,-0.272C0.17,-0.268 0.157,-0.263 0.145,-0.256C0.133,-0.25 0.123,-0.243 0.115,-0.235C0.107,-0.228 0.104,-0.219 0.104,-0.209L0.104,-0.197C0.104,-0.19 0.105,-0.181 0.106,-0.168C0.107,-0.156 0.108,-0.144 0.108,-0.132C0.109,-0.12 0.11,-0.11 0.111,-0.101C0.113,-0.091 0.113,-0.086 0.113,-0.085C0.115,-0.075 0.117,-0.058 0.12,-0.037C0.123,-0.015 0.127,0.01 0.131,0.037C0.135,0.064 0.139,0.092 0.144,0.122C0.149,0.152 0.154,0.181 0.158,0.208C0.163,0.235 0.167,0.259 0.17,0.28C0.174,0.302 0.177,0.317 0.179,0.327C0.179,0.328 0.179,0.33 0.179,0.331C0.18,0.332 0.18,0.332 0.18,0.333L0.18,0.334L0.179,0.336L0.179,0.338C0.177,0.34 0.174,0.343 0.17,0.348C0.165,0.352 0.161,0.354 0.16,0.355L0.154,0.355C0.148,0.355 0.141,0.349 0.134,0.337C0.127,0.325 0.119,0.309 0.112,0.289C0.104,0.268 0.097,0.244 0.089,0.218C0.082,0.191 0.075,0.163 0.067,0.135C0.06,0.106 0.054,0.078 0.048,0.05C0.042,0.022 0.037,-0.004 0.032,-0.028C0.028,-0.052 0.024,-0.073 0.022,-0.091C0.02,-0.108 0.019,-0.121 0.019,-0.128Z" style="fill-rule:nonzero;"/>
                </g>
                <g transform="matrix(281.911,0,0,281.911,1998.84,2624.55)">
                    <path d="M0.062,-0.338L0.062,-0.353C0.062,-0.36 0.063,-0.39 0.063,-0.397L0.063,-0.412C0.06,-0.432 0.066,-0.442 0.08,-0.442C0.087,-0.442 0.092,-0.441 0.097,-0.438C0.101,-0.434 0.105,-0.429 0.109,-0.423C0.107,-0.389 0.109,-0.356 0.114,-0.325C0.119,-0.293 0.124,-0.262 0.13,-0.231C0.137,-0.2 0.142,-0.169 0.148,-0.138C0.153,-0.106 0.156,-0.074 0.156,-0.04C0.156,-0.031 0.153,-0.022 0.148,-0.013C0.142,-0.004 0.134,0.001 0.123,0.001C0.115,0.001 0.107,-0.006 0.101,-0.021C0.095,-0.036 0.09,-0.054 0.085,-0.077C0.08,-0.099 0.076,-0.124 0.073,-0.151C0.07,-0.179 0.068,-0.205 0.066,-0.23C0.064,-0.255 0.063,-0.278 0.063,-0.297C0.062,-0.317 0.062,-0.331 0.062,-0.338ZM0.012,-0.583C0.012,-0.591 0.014,-0.596 0.019,-0.598C0.023,-0.6 0.029,-0.602 0.036,-0.602C0.041,-0.602 0.047,-0.599 0.054,-0.593C0.062,-0.587 0.068,-0.58 0.073,-0.572C0.078,-0.564 0.08,-0.557 0.081,-0.551C0.082,-0.543 0.077,-0.538 0.066,-0.537L0.062,-0.537C0.052,-0.537 0.044,-0.538 0.037,-0.539C0.031,-0.54 0.026,-0.542 0.022,-0.545C0.018,-0.548 0.016,-0.553 0.014,-0.559C0.013,-0.564 0.012,-0.573 0.012,-0.583Z" style="fill-rule:nonzero;"/>
                </g>
                <g transform="matrix(281.911,0,0,281.911,2048.12,2624.55)">
                    <path d="M0.04,-0.008C0.034,-0.054 0.029,-0.1 0.028,-0.146C0.026,-0.192 0.025,-0.238 0.025,-0.284C0.025,-0.33 0.026,-0.376 0.027,-0.422C0.029,-0.467 0.029,-0.513 0.028,-0.559C0.028,-0.564 0.03,-0.567 0.034,-0.569C0.038,-0.571 0.043,-0.572 0.048,-0.572C0.054,-0.572 0.059,-0.57 0.063,-0.566C0.068,-0.562 0.072,-0.556 0.075,-0.55C0.078,-0.544 0.081,-0.538 0.083,-0.532C0.084,-0.526 0.085,-0.521 0.085,-0.517C0.089,-0.424 0.091,-0.346 0.093,-0.284C0.094,-0.222 0.094,-0.171 0.093,-0.133C0.091,-0.095 0.089,-0.067 0.086,-0.049C0.083,-0.031 0.08,-0.018 0.075,-0.012C0.071,-0.005 0.065,-0.003 0.059,-0.004C0.053,-0.005 0.047,-0.007 0.04,-0.008Z" style="fill-rule:nonzero;"/>
                </g>
            </g>
        </g>
    </g>
</svg>
