<?xml version="1.0" encoding="UTF-8" standalone="no"?>
<!DOCTYPE svg PUBLIC "-//W3C//DTD SVG 1.1//EN" "http://www.w3.org/Graphics/SVG/1.1/DTD/svg11.dtd">
<svg width="100%" height="100%" viewBox="0 0 521 215" version="1.1" xmlns="http://www.w3.org/2000/svg" xmlns:xlink="http://www.w3.org/1999/xlink" xml:space="preserve" xmlns:serif="http://www.serif.com/" style="fill-rule:evenodd;clip-rule:evenodd;stroke-linejoin:round;stroke-miterlimit:2;">
    <g transform="matrix(1,0,0,1,-91.3549,-90.1247)">
        <g transform="matrix(0.968927,0,0,0.800727,-1882.14,-2847.66)">
            <path d="M2317.5,3668.89C2472.44,3668.89 2483.06,3802.67 2573.99,3802.67C2483.06,3802.67 2472.44,3936.44 2317.5,3936.44C2162.57,3936.44 2129.35,3802.67 2036.79,3802.67C2129.35,3802.67 2162.57,3668.89 2317.5,3668.89Z" style="fill:white;"/>
        </g>
        <g transform="matrix(0.486281,0,0,0.486281,-515.182,-1041.5)">
            <g transform="matrix(281.911,0,0,281.911,2054.97,2624.55)">
            </g>
            <text x="1533.58px" y="2624.55px" style="font-family:'Karla-Regular_ExtraLight', 'Karla', sans-serif;font-size:281.911px;">P<tspan x="1656.35px 1793.78px 1925.29px 1976.04px " y="2624.55px 2624.55px 2624.55px 2624.55px ">upil</tspan></text>
        </g>
    </g>
</svg>
